<svg id="Capa_1" data-name="Capa 1" xmlns="http://www.w3.org/2000/svg" viewBox="0 0 776.74 455.14"><defs><style>.cls-1{fill:#c6b326;}.cls-2{fill:none;stroke:#c6b326;stroke-miterlimit:10;stroke-width:26px;}.cls-3{fill:#fff;}</style></defs><title>LOGO</title><path class="cls-1" d="M456.85,513.8v8.4a2.8,2.8,0,0,1-2.8,2.8H412a2.68,2.68,0,0,1-1.25-.3l-11.87-5.93a2.8,2.8,0,0,1-1.54-2.5V449.73a2.8,2.8,0,0,1,1.54-2.5l11.87-5.93A2.68,2.68,0,0,1,412,441h42a2.8,2.8,0,0,1,2.8,2.8v8.4a2.8,2.8,0,0,1-2.8,2.8h-39.9a2.8,2.8,0,0,0-2.8,2.8v50.4a2.8,2.8,0,0,0,2.8,2.8h39.9A2.8,2.8,0,0,1,456.85,513.8Z" transform="translate(-300.7 -123)"/><path class="cls-1" d="M468.4,441h8.4a2.8,2.8,0,0,1,2.8,2.8v22.4a2.8,2.8,0,0,0,2.8,2.8h29.4a2.8,2.8,0,0,0,2.8-2.8V443.8a2.8,2.8,0,0,1,2.8-2.8h8.4a2.8,2.8,0,0,1,2.8,2.8v78.4a2.8,2.8,0,0,1-2.8,2.8h-8.4a2.8,2.8,0,0,1-2.8-2.8V485.8a2.8,2.8,0,0,0-2.8-2.8H482.4a2.8,2.8,0,0,0-2.8,2.8v36.4a2.8,2.8,0,0,1-2.8,2.8h-8.4a2.8,2.8,0,0,1-2.8-2.8V443.8A2.8,2.8,0,0,1,468.4,441Z" transform="translate(-300.7 -123)"/><path class="cls-1" d="M602.1,513.8v8.4a2.8,2.8,0,0,1-2.8,2.8H541.9a2.8,2.8,0,0,1-2.8-2.8V443.8a2.8,2.8,0,0,1,2.8-2.8h57.4a2.8,2.8,0,0,1,2.8,2.8v8.4a2.8,2.8,0,0,1-2.8,2.8H555.9a2.8,2.8,0,0,0-2.8,2.8v8.4a2.8,2.8,0,0,0,2.8,2.8h22.4a2.8,2.8,0,0,1,2.8,2.8v8.4a2.8,2.8,0,0,1-2.8,2.8H555.9a2.8,2.8,0,0,0-2.8,2.8v22.4a2.8,2.8,0,0,0,2.8,2.8h43.4A2.8,2.8,0,0,1,602.1,513.8Z" transform="translate(-300.7 -123)"/><path class="cls-1" d="M624.85,492.8v29.4a2.8,2.8,0,0,1-2.8,2.8h-8.4a2.8,2.8,0,0,1-2.8-2.8V443.8a2.8,2.8,0,0,1,2.8-2.8h8.4a2.8,2.8,0,0,1,2.8,2.8v29.4a2.8,2.8,0,0,0,2.8,2.8h14.79a2.79,2.79,0,0,0,2.5-1.55l15.95-31.9A2.81,2.81,0,0,1,663.4,441h9.42a2.8,2.8,0,0,1,2.5,4.05L657,481.75a2.82,2.82,0,0,0,0,2.5L675.32,521a2.8,2.8,0,0,1-2.5,4H663.4a2.81,2.81,0,0,1-2.51-1.55l-15.95-31.9a2.79,2.79,0,0,0-2.5-1.55H627.65A2.8,2.8,0,0,0,624.85,492.8Z" transform="translate(-300.7 -123)"/><path class="cls-1" d="M744.55,525h-8.4a2.8,2.8,0,0,1-2.8-2.8V506.8a2.8,2.8,0,0,0-2.8-2.8h-29.4a2.8,2.8,0,0,0-2.8,2.8v15.4a2.8,2.8,0,0,1-2.8,2.8h-8.4a2.8,2.8,0,0,1-2.8-2.8V449.73a2.8,2.8,0,0,1,1.54-2.5l11.87-5.93A2.68,2.68,0,0,1,699,441h33.68a2.74,2.74,0,0,1,1.25.3l11.86,5.93a2.79,2.79,0,0,1,1.55,2.5V522.2A2.8,2.8,0,0,1,744.55,525Zm-14-70h-29.4a2.8,2.8,0,0,0-2.8,2.8v29.4a2.8,2.8,0,0,0,2.8,2.8h29.4a2.8,2.8,0,0,0,2.8-2.8V457.8A2.8,2.8,0,0,0,730.55,455Z" transform="translate(-300.7 -123)"/><path class="cls-1" d="M807.28,523.72,777,476.78a2.8,2.8,0,0,0-5.15,1.52v43.9a2.8,2.8,0,0,1-2.8,2.8h-8.4a2.8,2.8,0,0,1-2.8-2.8V443.8a2.8,2.8,0,0,1,2.8-2.8h8.41a2.79,2.79,0,0,1,2.35,1.28l30.28,46.94a2.8,2.8,0,0,0,5.16-1.52V443.8a2.8,2.8,0,0,1,2.8-2.8h8.4a2.8,2.8,0,0,1,2.8,2.8v78.4a2.8,2.8,0,0,1-2.8,2.8h-8.42A2.8,2.8,0,0,1,807.28,523.72Z" transform="translate(-300.7 -123)"/><path class="cls-1" d="M831.35,522.2V443.8a2.8,2.8,0,0,1,2.8-2.8H869a2.86,2.86,0,0,1,1.25.29l22.57,11.26a2.79,2.79,0,0,1,1.55,2.5V511a2.79,2.79,0,0,1-1.55,2.5l-22.57,11.26A2.86,2.86,0,0,1,869,525H834.15A2.8,2.8,0,0,1,831.35,522.2Zm14-64.4v50.4a2.8,2.8,0,0,0,2.8,2.8h17.54a2.74,2.74,0,0,0,1.25-.3l11.86-5.93a2.79,2.79,0,0,0,1.55-2.5V463.73a2.79,2.79,0,0,0-1.55-2.5l-11.86-5.93a2.74,2.74,0,0,0-1.25-.3H848.15A2.8,2.8,0,0,0,845.35,457.8Z" transform="translate(-300.7 -123)"/><path class="cls-1" d="M919.51,441h33.68a2.74,2.74,0,0,1,1.25.3l11.86,5.93a2.79,2.79,0,0,1,1.55,2.5v66.54a2.79,2.79,0,0,1-1.55,2.5l-11.86,5.93a2.74,2.74,0,0,1-1.25.3H919.51a2.68,2.68,0,0,1-1.25-.3l-11.87-5.93a2.8,2.8,0,0,1-1.54-2.5V449.73a2.8,2.8,0,0,1,1.54-2.5l11.87-5.93A2.68,2.68,0,0,1,919.51,441Zm31.54,14h-29.4a2.8,2.8,0,0,0-2.8,2.8v50.4a2.8,2.8,0,0,0,2.8,2.8h29.4a2.8,2.8,0,0,0,2.8-2.8V457.8A2.8,2.8,0,0,0,951.05,455Z" transform="translate(-300.7 -123)"/><path class="cls-2" d="M761.87,168.34A130,130,0,1,0,806.07,266c0-1.09,0-2.19,0-3.27" transform="translate(-300.7 -123)"/><polygon class="cls-1" points="310.37 127.36 361.86 177.85 503.3 57 503.3 102.18 361.86 223.5 309.37 175.32 310.37 127.36"/><path class="cls-3" d="M302.74,572c.76,2.88,3,4.58,7.18,4.58,4.64,0,6.42-2,6.42-4.34s-1.27-4-6.86-5.14c-5.37-1.15-7.69-2.64-7.69-5.77,0-2.85,2.43-5.52,7.87-5.52s7.95,2.92,8.27,5.55h-2c-.58-2.33-2.36-4-6.35-4-3.66,0-5.65,1.46-5.65,3.88s1.66,3.31,6.34,4.31c7.15,1.52,8.2,4,8.2,6.57,0,3.19-2.72,6-8.6,6-6.34,0-8.66-3.16-9.14-6.07Z" transform="translate(-300.7 -123)"/><path class="cls-3" d="M345.43,566.83c0,5.92-3.7,11.31-11.54,11.31-7.14,0-11.31-4.93-11.31-11.16s4-11.16,11.57-11.16C341.11,555.82,345.43,560.5,345.43,566.83Zm-20.75.06c0,5,3.23,9.7,9.32,9.7,6.57,0,9.32-4.58,9.32-9.73s-3.12-9.49-9.25-9.49C327.54,557.37,324.68,562,324.68,566.89Z" transform="translate(-300.7 -123)"/><path class="cls-3" d="M351,556.13h2v20.16h13.64l-.36,1.54H351Z" transform="translate(-300.7 -123)"/><path class="cls-3" d="M371.54,556.13v13.15c0,5.76,3.81,7.25,7.4,7.25,4.25,0,7.4-1.52,7.4-7.25V556.13h2v13c0,6.79-4.21,8.9-9.47,8.9-5,0-9.36-2.32-9.36-8.62V556.13Z" transform="translate(-300.7 -123)"/><path class="cls-3" d="M414.45,572c-1.19,3.44-4.17,6-9.54,6-7.29,0-11.13-5-11.13-11.07,0-5.86,3.77-11.19,11.17-11.19,5.48,0,8.71,2.61,9.54,6.23h-2c-1.16-2.82-3.3-4.68-7.69-4.68-6.31,0-9,4.93-9,9.61s2.61,9.55,9.11,9.55c4.13,0,6.24-1.83,7.5-4.49Z" transform="translate(-300.7 -123)"/><path class="cls-3" d="M421.89,556.13v21.7h-2v-21.7Z" transform="translate(-300.7 -123)"/><path class="cls-3" d="M450.33,566.83c0,5.92-3.7,11.31-11.54,11.31-7.14,0-11.31-4.93-11.31-11.16s4-11.16,11.57-11.16C446,555.82,450.33,560.5,450.33,566.83Zm-20.75.06c0,5,3.23,9.7,9.32,9.7,6.57,0,9.32-4.58,9.32-9.73s-3.12-9.49-9.25-9.49C432.45,557.37,429.58,562,429.58,566.89Z" transform="translate(-300.7 -123)"/><path class="cls-3" d="M455.91,577.83v-21.7h2.91c3.95,5.21,13.23,17.33,14.83,19.69h0c-.22-3.13-.19-6.33-.19-9.86v-9.83h2v21.7h-2.68c-3.78-5-13.21-17.64-15-20h0c.18,2.86.15,6,.15,10v10.07Z" transform="translate(-300.7 -123)"/><path class="cls-3" d="M497.88,567.17H484.93v9.12h14.18l-.29,1.54H483v-21.7h15.56v1.55h-13.6v7.94h12.95Z" transform="translate(-300.7 -123)"/><path class="cls-3" d="M504.52,572c.76,2.88,3,4.58,7.18,4.58,4.64,0,6.42-2,6.42-4.34s-1.27-4-6.85-5.14c-5.37-1.15-7.69-2.64-7.69-5.77,0-2.85,2.43-5.52,7.87-5.52s7.94,2.92,8.27,5.55h-2c-.59-2.33-2.36-4-6.35-4-3.67,0-5.66,1.46-5.66,3.88s1.67,3.31,6.35,4.31c7.14,1.52,8.19,4,8.19,6.57,0,3.19-2.72,6-8.59,6-6.35,0-8.67-3.16-9.14-6.07Z" transform="translate(-300.7 -123)"/><path class="cls-3" d="M550,567.17H537v9.12H551.2l-.29,1.54H535.06v-21.7h15.56v1.55H537v7.94h13Z" transform="translate(-300.7 -123)"/><path class="cls-3" d="M556.21,577.83v-21.7h2.9c3.95,5.21,13.24,17.33,14.83,19.69h0c-.22-3.13-.18-6.33-.18-9.86v-9.83h2v21.7h-2.68c-3.77-5-13.2-17.64-15-20h0c.18,2.86.14,6,.14,10v10.07Z" transform="translate(-300.7 -123)"/><path class="cls-3" d="M592.33,556.13h2v20.16h13.64l-.36,1.54H592.33Z" transform="translate(-300.7 -123)"/><path class="cls-3" d="M632.42,566.83c0,5.92-3.7,11.31-11.54,11.31-7.14,0-11.32-4.93-11.32-11.16s4-11.16,11.57-11.16C628.1,555.82,632.42,560.5,632.42,566.83Zm-20.75.06c0,5,3.23,9.7,9.32,9.7,6.56,0,9.32-4.58,9.32-9.73s-3.12-9.49-9.25-9.49C614.53,557.37,611.67,562,611.67,566.89Z" transform="translate(-300.7 -123)"/><path class="cls-3" d="M657.59,577.83H656a13.66,13.66,0,0,1-.26-3.47c-.9,1.49-2.9,3.72-8.2,3.72-7.29,0-11-4.74-11-10.91,0-6.48,4-11.35,11.42-11.35,5.48,0,9.11,2.45,9.91,6.45h-2c-1.09-3.07-3.59-4.9-8-4.9-6.35,0-9.25,4.22-9.25,9.71,0,5,2.8,9.45,9,9.45s8.12-3.53,8.12-8.34v-.25h-8.2v-1.55h10.09Z" transform="translate(-300.7 -123)"/><path class="cls-3" d="M666.11,556.13v21.7h-2v-21.7Z" transform="translate(-300.7 -123)"/><path class="cls-3" d="M673.4,572c.77,2.88,3,4.58,7.19,4.58,4.64,0,6.42-2,6.42-4.34s-1.27-4-6.86-5.14c-5.37-1.15-7.69-2.64-7.69-5.77,0-2.85,2.43-5.52,7.87-5.52s7.95,2.92,8.27,5.55h-2c-.58-2.33-2.36-4-6.35-4-3.66,0-5.65,1.46-5.65,3.88s1.66,3.31,6.34,4.31c7.15,1.52,8.2,4,8.2,6.57,0,3.19-2.72,6-8.6,6-6.34,0-8.67-3.16-9.14-6.07Z" transform="translate(-300.7 -123)"/><path class="cls-3" d="M699.7,557.68h-8.52v-1.55h19.08v1.55H701.7v20.15h-2Z" transform="translate(-300.7 -123)"/><path class="cls-3" d="M716,556.13v21.7h-2v-21.7Z" transform="translate(-300.7 -123)"/><path class="cls-3" d="M742.25,572c-1.2,3.44-4.17,6-9.54,6-7.29,0-11.13-5-11.13-11.07,0-5.86,3.77-11.19,11.17-11.19,5.47,0,8.7,2.61,9.54,6.23h-2c-1.16-2.82-3.3-4.68-7.69-4.68-6.31,0-9,4.93-9,9.61s2.61,9.55,9.1,9.55c4.14,0,6.24-1.83,7.51-4.49Z" transform="translate(-300.7 -123)"/><path class="cls-3" d="M750.08,570.33l-3.22,7.5h-2l9.32-21.7h2.32l9.72,21.7h-2.14l-3.3-7.5Zm10-1.55c-2.83-6.45-4.28-9.55-4.79-11h0c-.62,1.65-2.25,5.49-4.54,11Z" transform="translate(-300.7 -123)"/><path class="cls-3" d="M780.15,556.13h8.42c7,0,11.79,4.16,11.79,10.67s-4.72,11-11.83,11h-8.38Zm2,20.16h6.13c6.71,0,10-4,10-9.4,0-4.77-3-9.21-10-9.21h-6.13Z" transform="translate(-300.7 -123)"/><path class="cls-3" d="M820.85,567.17h-13v9.12h14.18l-.29,1.54H806v-21.7H821.5v1.55H807.9v7.94h13Z" transform="translate(-300.7 -123)"/><path class="cls-3" d="M838.48,556.13v21.7h-2v-21.7Z" transform="translate(-300.7 -123)"/><path class="cls-3" d="M846,577.83v-21.7h2.9c4,5.21,13.24,17.33,14.84,19.69h0c-.22-3.13-.19-6.33-.19-9.86v-9.83h2v21.7h-2.69c-3.77-5-13.2-17.64-15-20h0c.18,2.86.15,6,.15,10v10.07Z" transform="translate(-300.7 -123)"/><path class="cls-3" d="M873,556.13h15.38v1.55H875v8.19h12.59v1.55H875v10.41h-2Z" transform="translate(-300.7 -123)"/><path class="cls-3" d="M914.61,566.83c0,5.92-3.69,11.31-11.53,11.31-7.14,0-11.32-4.93-11.32-11.16s4-11.16,11.57-11.16C910.3,555.82,914.61,560.5,914.61,566.83Zm-20.74.06c0,5,3.23,9.7,9.32,9.7,6.56,0,9.32-4.58,9.32-9.73s-3.12-9.49-9.25-9.49C896.73,557.37,893.87,562,893.87,566.89Z" transform="translate(-300.7 -123)"/><path class="cls-3" d="M922.2,567.7v10.13h-2v-21.7h9.11c5,0,7.65,2.3,7.65,5.71,0,2.76-1.92,4.55-4.75,5.08,2.61.53,4.35,2,4.35,5.67v.84c0,1.52-.14,3.57.33,4.4h-2c-.47-.93-.36-2.66-.36-4.52v-.56c0-3.57-1.23-5-6.09-5Zm0-1.55h6.13c4.46,0,6.53-1.43,6.53-4.28,0-2.67-2-4.19-6-4.19H922.2Z" transform="translate(-300.7 -123)"/><path class="cls-3" d="M965.32,567.85c0-4.25,0-8.31.15-10.48h-.11c-1,2.92-6.17,13.61-9.39,20.46H954c-2.43-5.3-7.76-17.2-8.92-20.49h-.07c.18,2.48.25,7.54.25,11.26v9.23h-2v-21.7h2.94c3.48,7.44,7.87,17.18,8.82,19.63h.07c.58-1.58,5.66-12.4,9.21-19.63h2.9v21.7h-2Z" transform="translate(-300.7 -123)"/><path class="cls-3" d="M977,570.33l-3.22,7.5h-2l9.32-21.7h2.32l9.72,21.7H991l-3.3-7.5Zm10-1.55c-2.83-6.45-4.28-9.55-4.79-11h0c-.62,1.65-2.25,5.49-4.54,11Z" transform="translate(-300.7 -123)"/><path class="cls-3" d="M1016.4,572c-1.2,3.44-4.17,6-9.54,6-7.29,0-11.14-5-11.14-11.07,0-5.86,3.77-11.19,11.17-11.19,5.48,0,8.71,2.61,9.54,6.23h-2c-1.16-2.82-3.3-4.68-7.68-4.68-6.32,0-9,4.93-9,9.61s2.61,9.55,9.1,9.55c4.13,0,6.24-1.83,7.51-4.49Z" transform="translate(-300.7 -123)"/><path class="cls-3" d="M1023.83,556.13v21.7h-2v-21.7Z" transform="translate(-300.7 -123)"/><path class="cls-3" d="M1052.27,566.83c0,5.92-3.7,11.31-11.53,11.31-7.15,0-11.32-4.93-11.32-11.16s4-11.16,11.57-11.16C1048,555.82,1052.27,560.5,1052.27,566.83Zm-20.75.06c0,5,3.23,9.7,9.32,9.7,6.57,0,9.33-4.58,9.33-9.73s-3.12-9.49-9.25-9.49C1034.39,557.37,1031.52,562,1031.52,566.89Z" transform="translate(-300.7 -123)"/><path class="cls-3" d="M1057.86,577.83v-21.7h2.9c4,5.21,13.24,17.33,14.83,19.69h0c-.22-3.13-.18-6.33-.18-9.86v-9.83h2v21.7h-2.68c-3.77-5-13.2-17.64-15-20h0c.18,2.86.14,6,.14,10v10.07Z" transform="translate(-300.7 -123)"/></svg>