<svg id="Capa_1" data-name="Capa 1" xmlns="http://www.w3.org/2000/svg" viewBox="0 0 570.5 402"><defs><style>.cls-1{fill:#c6b326;}.cls-2{fill:none;stroke:#c6b326;stroke-miterlimit:10;stroke-width:26px;}</style></defs><title>logop</title><path class="cls-1" d="M456.85,513.8v8.4a2.8,2.8,0,0,1-2.8,2.8H412a2.68,2.68,0,0,1-1.25-.3l-11.87-5.93a2.8,2.8,0,0,1-1.54-2.5V449.73a2.8,2.8,0,0,1,1.54-2.5l11.87-5.93A2.68,2.68,0,0,1,412,441h42a2.8,2.8,0,0,1,2.8,2.8v8.4a2.8,2.8,0,0,1-2.8,2.8h-39.9a2.8,2.8,0,0,0-2.8,2.8v50.4a2.8,2.8,0,0,0,2.8,2.8h39.9A2.8,2.8,0,0,1,456.85,513.8Z" transform="translate(-397.35 -123)"/><path class="cls-1" d="M468.4,441h8.4a2.8,2.8,0,0,1,2.8,2.8v22.4a2.8,2.8,0,0,0,2.8,2.8h29.4a2.8,2.8,0,0,0,2.8-2.8V443.8a2.8,2.8,0,0,1,2.8-2.8h8.4a2.8,2.8,0,0,1,2.8,2.8v78.4a2.8,2.8,0,0,1-2.8,2.8h-8.4a2.8,2.8,0,0,1-2.8-2.8V485.8a2.8,2.8,0,0,0-2.8-2.8H482.4a2.8,2.8,0,0,0-2.8,2.8v36.4a2.8,2.8,0,0,1-2.8,2.8h-8.4a2.8,2.8,0,0,1-2.8-2.8V443.8A2.8,2.8,0,0,1,468.4,441Z" transform="translate(-397.35 -123)"/><path class="cls-1" d="M602.1,513.8v8.4a2.8,2.8,0,0,1-2.8,2.8H541.9a2.8,2.8,0,0,1-2.8-2.8V443.8a2.8,2.8,0,0,1,2.8-2.8h57.4a2.8,2.8,0,0,1,2.8,2.8v8.4a2.8,2.8,0,0,1-2.8,2.8H555.9a2.8,2.8,0,0,0-2.8,2.8v8.4a2.8,2.8,0,0,0,2.8,2.8h22.4a2.8,2.8,0,0,1,2.8,2.8v8.4a2.8,2.8,0,0,1-2.8,2.8H555.9a2.8,2.8,0,0,0-2.8,2.8v22.4a2.8,2.8,0,0,0,2.8,2.8h43.4A2.8,2.8,0,0,1,602.1,513.8Z" transform="translate(-397.35 -123)"/><path class="cls-1" d="M624.85,492.8v29.4a2.8,2.8,0,0,1-2.8,2.8h-8.4a2.8,2.8,0,0,1-2.8-2.8V443.8a2.8,2.8,0,0,1,2.8-2.8h8.4a2.8,2.8,0,0,1,2.8,2.8v29.4a2.8,2.8,0,0,0,2.8,2.8h14.79a2.79,2.79,0,0,0,2.5-1.55l15.95-31.9A2.81,2.81,0,0,1,663.4,441h9.42a2.8,2.8,0,0,1,2.5,4.05L657,481.75a2.82,2.82,0,0,0,0,2.5L675.32,521a2.8,2.8,0,0,1-2.5,4H663.4a2.81,2.81,0,0,1-2.51-1.55l-15.95-31.9a2.79,2.79,0,0,0-2.5-1.55H627.65A2.8,2.8,0,0,0,624.85,492.8Z" transform="translate(-397.35 -123)"/><path class="cls-1" d="M744.55,525h-8.4a2.8,2.8,0,0,1-2.8-2.8V506.8a2.8,2.8,0,0,0-2.8-2.8h-29.4a2.8,2.8,0,0,0-2.8,2.8v15.4a2.8,2.8,0,0,1-2.8,2.8h-8.4a2.8,2.8,0,0,1-2.8-2.8V449.73a2.8,2.8,0,0,1,1.54-2.5l11.87-5.93A2.68,2.68,0,0,1,699,441h33.68a2.74,2.74,0,0,1,1.25.3l11.86,5.93a2.79,2.79,0,0,1,1.55,2.5V522.2A2.8,2.8,0,0,1,744.55,525Zm-14-70h-29.4a2.8,2.8,0,0,0-2.8,2.8v29.4a2.8,2.8,0,0,0,2.8,2.8h29.4a2.8,2.8,0,0,0,2.8-2.8V457.8A2.8,2.8,0,0,0,730.55,455Z" transform="translate(-397.35 -123)"/><path class="cls-1" d="M807.28,523.72,777,476.78a2.8,2.8,0,0,0-5.15,1.52v43.9a2.8,2.8,0,0,1-2.8,2.8h-8.4a2.8,2.8,0,0,1-2.8-2.8V443.8a2.8,2.8,0,0,1,2.8-2.8h8.41a2.79,2.79,0,0,1,2.35,1.28l30.28,46.94a2.8,2.8,0,0,0,5.16-1.52V443.8a2.8,2.8,0,0,1,2.8-2.8h8.4a2.8,2.8,0,0,1,2.8,2.8v78.4a2.8,2.8,0,0,1-2.8,2.8h-8.42A2.8,2.8,0,0,1,807.28,523.72Z" transform="translate(-397.35 -123)"/><path class="cls-1" d="M831.35,522.2V443.8a2.8,2.8,0,0,1,2.8-2.8H869a2.86,2.86,0,0,1,1.25.29l22.57,11.26a2.79,2.79,0,0,1,1.55,2.5V511a2.79,2.79,0,0,1-1.55,2.5l-22.57,11.26A2.86,2.86,0,0,1,869,525H834.15A2.8,2.8,0,0,1,831.35,522.2Zm14-64.4v50.4a2.8,2.8,0,0,0,2.8,2.8h17.54a2.74,2.74,0,0,0,1.25-.3l11.86-5.93a2.79,2.79,0,0,0,1.55-2.5V463.73a2.79,2.79,0,0,0-1.55-2.5l-11.86-5.93a2.74,2.74,0,0,0-1.25-.3H848.15A2.8,2.8,0,0,0,845.35,457.8Z" transform="translate(-397.35 -123)"/><path class="cls-1" d="M919.51,441h33.68a2.74,2.74,0,0,1,1.25.3l11.86,5.93a2.79,2.79,0,0,1,1.55,2.5v66.54a2.79,2.79,0,0,1-1.55,2.5l-11.86,5.93a2.74,2.74,0,0,1-1.25.3H919.51a2.68,2.68,0,0,1-1.25-.3l-11.87-5.93a2.8,2.8,0,0,1-1.54-2.5V449.73a2.8,2.8,0,0,1,1.54-2.5l11.87-5.93A2.68,2.68,0,0,1,919.51,441Zm31.54,14h-29.4a2.8,2.8,0,0,0-2.8,2.8v50.4a2.8,2.8,0,0,0,2.8,2.8h29.4a2.8,2.8,0,0,0,2.8-2.8V457.8A2.8,2.8,0,0,0,951.05,455Z" transform="translate(-397.35 -123)"/><path class="cls-2" d="M761.87,168.34A130,130,0,1,0,806.07,266c0-1.09,0-2.19,0-3.27" transform="translate(-397.35 -123)"/><polygon class="cls-1" points="213.73 127.36 265.22 177.85 406.65 57 406.65 102.18 265.22 223.5 212.73 175.32 213.73 127.36"/></svg>